<svg width="108" height="79" viewBox="0 0 108 79" fill="none" xmlns="http://www.w3.org/2000/svg">
<path d="M9.396 18.358C0.837 17.683 0.702 13.903 0.702 11.986C0.702 7.369 4.779 4.669 10.611 4.669C14.418 4.669 17.685 5.695 20.25 7.099V13.741C16.875 11.797 13.743 11.581 10.611 11.581V12.337C16.875 12.337 20.52 14.281 20.52 18.628C20.52 23.515 16.983 26.647 10.881 26.647C7.749 26.647 4.374 25.702 0.972 23.245V17.143C3.564 18.358 6.642 19.114 9.396 19.114V18.358ZM34.6176 17.197C33.2676 17.197 31.1346 16.954 29.5956 16.603V17.386C30.9996 17.71 33.2676 17.953 34.6176 17.953V26.161C32.8626 26.647 31.2426 26.728 29.9736 26.728C25.6806 26.728 22.6296 24.271 22.6296 20.275V16.495H21.4956V9.718H22.4406V5.101H31.6206V9.718H34.6176V17.197ZM45.4577 9.718C43.9997 10.636 40.4627 11.095 38.4377 11.095V10.339C40.4627 10.339 44.1347 9.745 45.4577 8.935V5.101H36.2777V26.215H45.4577V9.718ZM46.8376 18.034C46.8376 12.607 50.4826 9.178 56.8816 9.178C60.2296 9.178 63.1186 9.826 65.1706 11.203V17.656C61.6336 17.656 58.1776 17.413 54.8296 16.738V17.683C57.9346 18.439 61.8766 18.601 65.1706 18.601V24.217C62.7676 26.107 59.7976 26.647 55.9636 26.647C50.4826 26.647 46.8376 23.488 46.8376 18.034ZM75.859 26.215H66.679V5.101H75.859V13.093L74.374 16.819L75.103 17.008L78.019 9.718H87.145L83.122 17.953L87.145 26.215H77.695L75.859 22.354V26.215ZM106.928 23.758C106.928 29.023 103.445 31.831 97.5052 31.831C94.7512 31.831 91.6732 31.453 89.6482 30.724V24.568C92.4562 25.891 96.0472 26.188 98.2882 25.378V24.541C92.5102 26.134 88.1092 23.38 88.1092 17.332V9.718H97.0192V18.412L98.0182 18.034V9.718H106.928V23.758Z" fill="#662AF1"/>
<path d="M25.72 63.3C25.72 64.5 26.24 65.02 27.44 65.02H31.12V65.5H25.72V68.3H42.68V65.5H37.28V65.02H42.68V62.4H31.74V61.88H42.68V59.26H25.72V63.3ZM32.56 76C36.86 76 40.12 75.58 42.68 74.9V71.88C40.98 72.46 38.86 72.74 36.88 72.74V72.2C38.86 72.2 40.98 71.92 42.68 71.34V68.72H25.72V71.36C28 71.36 29.28 71.22 31.52 70.82V71.36C29.28 71.76 28 71.9 25.72 71.9V72.62C25.72 74.92 27.78 76 32.56 76ZM43.9184 67.46C43.9184 61.12 45.9384 58.96 49.1184 58.96C52.3184 58.96 54.3384 61.12 54.3384 67.46C54.3384 73.78 52.3184 75.96 49.1184 75.96C45.9384 75.96 43.9184 73.8 43.9184 67.46ZM60.2784 75.68H54.8984V59.26H60.2784V64.48H61.7984V69.2H60.2784V75.68ZM47.2384 66.42L46.8784 66.96C48.1984 67.56 49.8384 67.86 51.3384 67.86V67.26C49.8384 67.26 48.4184 66.9 47.2384 66.42ZM62.5169 75.68V70.46C65.9369 70.1 67.1569 68.3 67.1569 63.98C65.7169 64.34 64.1169 64.48 62.5169 64.42V59.26H72.5369V64.54C72.5369 72.08 68.6169 75.28 62.5169 75.68ZM78.6769 75.68H73.2969V59.26H78.6769V64.48H80.1969V69.2H78.6769V75.68ZM97.8753 75.68H92.0953V59.26H97.8753V75.68ZM80.9153 75.68V70.46C84.3353 70.1 85.5553 68.3 85.5553 63.98C84.1153 64.34 82.5153 64.48 80.9153 64.42V59.26H91.3353V64.54C91.3353 72.08 87.4153 75.28 80.9153 75.68Z" fill="#662AF1"/>
<path d="M3 76V74H5V60C5 59.45 5.196 58.979 5.588 58.587C5.98 58.195 6.45067 57.9993 7 58H17C17.55 58 18.021 58.196 18.413 58.588C18.805 58.98 19.0007 59.4507 19 60V74H21V76H3ZM10 68C10.2833 68 10.521 67.904 10.713 67.712C10.905 67.52 11.0007 67.2827 11 67C11 66.7167 10.904 66.479 10.712 66.287C10.52 66.095 10.2827 65.9993 10 66C9.71667 66 9.479 66.096 9.287 66.288C9.095 66.48 8.99933 66.7173 9 67C9 67.2833 9.096 67.521 9.288 67.713C9.48 67.905 9.71733 68.0007 10 68Z" fill="#662AF1"/>
</svg>
