<svg width="28" height="28" viewBox="0 0 28 28" fill="none" xmlns="http://www.w3.org/2000/svg">
<path d="M3.0625 17.5C3.4106 17.5 3.74444 17.6383 3.99058 17.8844C4.23672 18.1306 4.375 18.4644 4.375 18.8125V23.1875C4.375 23.429 4.571 23.625 4.8125 23.625H9.1875C9.5356 23.625 9.86944 23.7633 10.1156 24.0094C10.3617 24.2556 10.5 24.5894 10.5 24.9375C10.5 25.2856 10.3617 25.6194 10.1156 25.8656C9.86944 26.1117 9.5356 26.25 9.1875 26.25H4.8125C4.00027 26.25 3.22132 25.9273 2.64699 25.353C2.07266 24.7787 1.75 23.9997 1.75 23.1875V18.8125C1.75 18.4644 1.88828 18.1306 2.13442 17.8844C2.38056 17.6383 2.7144 17.5 3.0625 17.5ZM24.9375 17.5C25.2856 17.5 25.6194 17.6383 25.8656 17.8844C26.1117 18.1306 26.25 18.4644 26.25 18.8125V23.1875C26.25 23.9997 25.9273 24.7787 25.353 25.353C24.7787 25.9273 23.9997 26.25 23.1875 26.25H18.8125C18.4644 26.25 18.1306 26.1117 17.8844 25.8656C17.6383 25.6194 17.5 25.2856 17.5 24.9375C17.5 24.5894 17.6383 24.2556 17.8844 24.0094C18.1306 23.7633 18.4644 23.625 18.8125 23.625H23.1875C23.3035 23.625 23.4148 23.5789 23.4969 23.4969C23.5789 23.4148 23.625 23.3035 23.625 23.1875V18.8125C23.625 18.4644 23.7633 18.1306 24.0094 17.8844C24.2556 17.6383 24.5894 17.5 24.9375 17.5ZM4.8125 4.375C4.69647 4.375 4.58519 4.42109 4.50314 4.50314C4.42109 4.58519 4.375 4.69647 4.375 4.8125V9.1875C4.375 9.5356 4.23672 9.86944 3.99058 10.1156C3.74444 10.3617 3.4106 10.5 3.0625 10.5C2.7144 10.5 2.38056 10.3617 2.13442 10.1156C1.88828 9.86944 1.75 9.5356 1.75 9.1875V4.8125C1.75 3.122 3.122 1.75 4.8125 1.75H9.1875C9.5356 1.75 9.86944 1.88828 10.1156 2.13442C10.3617 2.38056 10.5 2.7144 10.5 3.0625C10.5 3.4106 10.3617 3.74444 10.1156 3.99058C9.86944 4.23672 9.5356 4.375 9.1875 4.375H4.8125ZM17.5 3.0625C17.5 2.7144 17.6383 2.38056 17.8844 2.13442C18.1306 1.88828 18.4644 1.75 18.8125 1.75H23.1875C24.878 1.75 26.25 3.122 26.25 4.8125V9.1875C26.25 9.5356 26.1117 9.86944 25.8656 10.1156C25.6194 10.3617 25.2856 10.5 24.9375 10.5C24.5894 10.5 24.2556 10.3617 24.0094 10.1156C23.7633 9.86944 23.625 9.5356 23.625 9.1875V4.8125C23.625 4.69647 23.5789 4.58519 23.4969 4.50314C23.4148 4.42109 23.3035 4.375 23.1875 4.375H18.8125C18.4644 4.375 18.1306 4.23672 17.8844 3.99058C17.6383 3.74444 17.5 3.4106 17.5 3.0625Z" fill="#662AF1"/>
</svg>
