<svg width="38" height="39" viewBox="0 0 38 39" fill="none" xmlns="http://www.w3.org/2000/svg">
<g clip-path="url(#clip0_60_29)">
<path d="M37.9818 19.8648C37.9818 18.267 37.8525 17.101 37.5727 15.8918H19.3784V23.1036H30.0581C29.8428 24.8958 28.6801 27.5948 26.0963 29.4085L26.06 29.6499L31.8127 34.119L32.2113 34.1589C35.8716 30.7689 37.9818 25.781 37.9818 19.8648Z" fill="#4285F4"/>
<path d="M19.3784 38.8661C24.6105 38.8661 29.003 37.1386 32.2113 34.159L26.0963 29.4086C24.4599 30.553 22.2636 31.3519 19.3784 31.3519C14.2539 31.3519 9.90454 27.962 8.35411 23.2765L8.12686 23.2958L2.14512 27.9382L2.06689 28.1563C5.25355 34.5043 11.7992 38.8661 19.3784 38.8661Z" fill="#34A853"/>
<path d="M8.35421 23.2764C7.94512 22.0673 7.70836 20.7716 7.70836 19.433C7.70836 18.0942 7.94512 16.7987 8.33269 15.5895L8.32185 15.332L2.26516 10.6151L2.06699 10.7096C0.753617 13.3439 0 16.3021 0 19.433C0 22.5639 0.753617 25.5219 2.06699 28.1562L8.35421 23.2764Z" fill="#FBBC05"/>
<path d="M19.3784 7.51405C23.0172 7.51405 25.4718 9.09027 26.8714 10.4075L32.3404 5.05258C28.9816 1.92172 24.6105 0 19.3784 0C11.7992 0 5.25355 4.3616 2.06689 10.7097L8.33259 15.5896C9.90454 10.9041 14.2539 7.51405 19.3784 7.51405Z" fill="#EB4335"/>
</g>
<defs>
<clipPath id="clip0_60_29">
<rect width="38" height="39" fill="white"/>
</clipPath>
</defs>
</svg>
